<svg fill="none" xmlns="http://www.w3.org/2000/svg" width="490"  height="56" viewBox="0 0 490 56"><path fill-rule="evenodd" clip-rule="evenodd" d="M32.9876 0c-.5089 0-.8301.547203-.5821.99158L47.2079 27.5127c.1691.3028.1691.6718 0 .9746L32.4055 55.0084c-.248.4444.0732.9916.5821.9916h14.9441c.3624 0 .6965-.1961.8732-.5127l15.0697-27c.1691-.3028.1691-.6718 0-.9747L48.8049.512633C48.6282.196133 48.2941 0 47.9317 0H32.9876Zm-1.4049 27.5127c.1692.3028.1692.6718 0 .9746L16.4369 55.6237c-.2543.4556-.9099.4556-1.1642 0L.126803 28.4873c-.1690703-.3028-.1690705-.6718-.000001-.9746L15.2727.376323c.2543-.455675.9099-.4556757 1.1642-.000002L31.5827 27.5127Z" fill="#DF3730"/><path d="M85.4193 9.33467H78L91.1433 46.668h8.3487l13.161-37.33333h-7.437L95.518 38.7201h-.3827l-9.716-29.38543ZM117.279 46.668h6.599v-28h-6.599v28Zm3.318-31.974c2.096 0 3.81-1.6041 3.81-3.5729 0-1.98696-1.714-3.59116-3.81-3.59116-2.114 0-3.828 1.6042-3.828 3.59116 0 1.9688 1.714 3.5729 3.828 3.5729ZM143.06 47.2149c6.526 0 11.01-3.1902 12.177-8.0574l-6.162-.6926c-.893 2.3698-3.08 3.6093-5.924 3.6093-4.266 0-7.091-2.8073-7.146-7.6015h19.506v-2.0235c0-9.8255-5.907-14.1458-12.798-14.1458-8.02 0-13.252 5.888-13.252 14.5286 0 8.7865 5.159 14.3829 13.599 14.3829Zm-7.037-17.1902c.201-3.5729 2.844-6.5807 6.782-6.5807 3.792 0 6.344 2.7709 6.38 6.5807h-13.162ZM166.721 46.668h6.891l5.25-18.9219h.383l5.25 18.9219h6.872l7.93-28h-6.745l-4.849 19.5781h-.273l-5.031-19.5781h-6.654l-5.032 19.6875h-.254l-4.922-19.6875h-6.727l7.911 28ZM236.152 21.931c-1.149-8.2943-7.529-13.1068-15.805-13.1068-9.752 0-17.099 7.1094-17.099 19.1771 0 12.0495 7.255 19.1771 17.099 19.1771 8.878 0 14.766-5.7422 15.805-12.8698l-6.818-.0365c-.857 4.375-4.43 6.836-8.896 6.836-6.052 0-10.391-4.5391-10.391-13.1068 0-8.4219 4.302-13.1068 10.41-13.1068 4.538 0 8.093 2.5704 8.877 7.0365h6.818ZM253.6 47.2149c8.203 0 13.417-5.7787 13.417-14.4376 0-8.677-5.214-14.4739-13.417-14.4739s-13.417 5.7969-13.417 14.4739c0 8.6589 5.214 14.4376 13.417 14.4376Zm.037-5.2865c-4.54 0-6.763-4.0469-6.763-9.1693s2.223-9.224 6.763-9.224c4.466 0 6.69 4.1016 6.69 9.224s-2.224 9.1693-6.69 9.1693ZM272.618 46.668h6.599V29.6419c0-3.4453 2.297-5.7786 5.14-5.7786 2.79 0 4.704 1.8776 4.704 4.7578V46.668h6.471V29.2044c0-3.1536 1.877-5.3411 5.067-5.3411 2.662 0 4.776 1.5677 4.776 5.0312V46.668h6.618V27.8737c0-6.2526-3.61-9.5703-8.75-9.5703-4.065 0-7.164 2.0052-8.404 5.1224h-.292c-1.075-3.1719-3.791-5.1224-7.564-5.1224-3.756 0-6.563 1.9323-7.73 5.1224h-.328V18.668h-6.307v28ZM318.687 55.9999h6.6V42.2565h.273c1.039 2.0417 3.208 4.9036 8.021 4.9036 6.599 0 11.539-5.2317 11.539-14.4557 0-9.3333-5.086-14.401-11.557-14.401-4.94 0-7 2.9713-8.003 4.9948h-.383V18.668h-6.49v37.3319Zm6.472-23.3319c0-5.4323 2.333-8.9505 6.58-8.9505 4.394 0 6.654 3.7369 6.654 8.9505 0 5.25-2.296 9.0781-6.654 9.0781-4.21 0-6.58-3.6458-6.58-9.0781ZM362.985 47.2149c8.202 0 13.416-5.7787 13.416-14.4376 0-8.677-5.214-14.4739-13.416-14.4739-8.204 0-13.417 5.7969-13.417 14.4739 0 8.6589 5.213 14.4376 13.417 14.4376Zm.036-5.2865c-4.539 0-6.763-4.0469-6.763-9.1693s2.224-9.224 6.763-9.224c4.466 0 6.69 4.1016 6.69 9.224s-2.224 9.1693-6.69 9.1693ZM388.601 30.2617c0-4.0468 2.442-6.3802 5.924-6.3802 3.409 0 5.451 2.2422 5.451 5.9792V46.668h6.599V28.8399c.018-6.7084-3.81-10.5365-9.589-10.5365-4.193 0-7.073 2.0052-8.349 5.1224h-.328V18.668h-6.307v28h6.599V30.2617ZM425.679 47.2149c6.526 0 11.01-3.1902 12.177-8.0574l-6.161-.6926c-.894 2.3698-3.081 3.6093-5.925 3.6093-4.265 0-7.091-2.8073-7.145-7.6015h19.504v-2.0235c0-9.8255-5.906-14.1458-12.796-14.1458-8.021 0-13.253 5.888-13.253 14.5286 0 8.7865 5.159 14.3829 13.599 14.3829Zm-7.036-17.1902c.2-3.5729 2.843-6.5807 6.781-6.5807 3.791 0 6.343 2.7709 6.38 6.5807h-13.161ZM450.311 30.2617c0-4.0468 2.443-6.3802 5.925-6.3802 3.409 0 5.45 2.2422 5.45 5.9792V46.668h6.599V28.8399c.018-6.7084-3.81-10.5365-9.588-10.5365-4.193 0-7.073 2.0052-8.35 5.1224h-.328V18.668h-6.307v28h6.599V30.2617ZM488.975 18.668h-5.523v-6.7083h-6.599v6.7083h-3.974v5.1041h3.974v15.5678c-.036 5.2682 3.792 7.8567 8.75 7.7109 1.878-.0547 3.172-.4193 3.883-.6563l-1.112-5.1588c-.365.0911-1.112.2552-1.933.2552-1.658 0-2.989-.5834-2.989-3.2448v-14.474h5.523V18.668Z" fill="#fff"/></svg>
