<svg width="97" height="84" viewBox="0 0 97 84" fill="none" xmlns="http://www.w3.org/2000/svg">
<path fill-rule="evenodd" clip-rule="evenodd" d="M49.7119 0C48.9485 0 48.4667 0.820805 48.8387 1.48737L71.0424 41.269C71.296 41.7233 71.296 42.2767 71.0424 42.731L48.8387 82.5126C48.4667 83.1792 48.9485 84 49.7119 84H72.1279C72.6716 84 73.1728 83.7058 73.4377 83.231L96.0424 42.731C96.296 42.2767 96.296 41.7233 96.0424 41.2689L73.4377 0.76895C73.1727 0.2942 72.6716 0 72.1279 0H49.7119ZM47.6046 41.269C47.8582 41.7233 47.8582 42.2767 47.6046 42.731L24.8858 83.4355C24.5044 84.119 23.5209 84.119 23.1395 83.4355L0.420672 42.731C0.167068 42.2767 0.167067 41.7233 0.420672 41.269L23.1394 0.564484C23.5209 -0.119028 24.5043 -0.119029 24.8858 0.564482L47.6046 41.269Z" fill="white"/>
</svg>
