<svg width="735" height="84" viewBox="0 0 735 84" fill="none" xmlns="http://www.w3.org/2000/svg">
<path fill-rule="evenodd" clip-rule="evenodd" d="M49.4814 0C48.7181 0 48.2362 0.820805 48.6082 1.48737L70.8119 41.269C71.0655 41.7233 71.0655 42.2767 70.8119 42.731L48.6082 82.5126C48.2362 83.1792 48.7181 84 49.4814 84H71.8975C72.4412 84 72.9423 83.7058 73.2073 83.231L95.8119 42.731C96.0655 42.2767 96.0655 41.7233 95.8119 41.2689L73.2073 0.76895C72.9423 0.2942 72.4412 0 71.8975 0H49.4814ZM47.3741 41.269C47.6278 41.7233 47.6278 42.2767 47.3741 42.731L24.6554 83.4355C24.2739 84.119 23.2905 84.119 22.909 83.4355L0.190204 42.731C-0.063401 42.2767 -0.0634013 41.7233 0.190203 41.269L22.909 0.564484C23.2905 -0.119028 24.2739 -0.119029 24.6554 0.564482L47.3741 41.269Z" fill="#DF3730"/>
<path d="M128.129 14.002H117L136.715 70.002H149.238L168.98 14.002H157.824L143.277 58.0801H142.703L128.129 14.002Z" fill="black"/>
<path d="M175.919 70.002H185.817V28.002H175.919V70.002ZM180.896 22.041C184.04 22.041 186.61 19.6348 186.61 16.6816C186.61 13.7012 184.04 11.2949 180.896 11.2949C177.724 11.2949 175.153 13.7012 175.153 16.6816C175.153 19.6348 177.724 22.041 180.896 22.041Z" fill="black"/>
<path d="M214.59 70.8223C224.379 70.8223 231.105 66.0371 232.855 58.7363L223.613 57.6973C222.273 61.252 218.992 63.1113 214.727 63.1113C208.328 63.1113 204.09 58.9004 204.008 51.709H233.266V48.6738C233.266 33.9355 224.406 27.4551 214.07 27.4551C202.039 27.4551 194.191 36.2871 194.191 49.248C194.191 62.4277 201.93 70.8223 214.59 70.8223ZM204.035 45.0371C204.336 39.6777 208.301 35.166 214.207 35.166C219.895 35.166 223.723 39.3223 223.777 45.0371H204.035Z" fill="black"/>
<path d="M250.082 70.002H260.418L268.293 41.6191H268.867L276.742 70.002H287.051L298.945 28.002H288.828L281.555 57.3691H281.145L273.598 28.002H263.617L256.07 57.5332H255.688L248.305 28.002H238.215L250.082 70.002Z" fill="black"/>
<path d="M354.228 32.8965C352.505 20.4551 342.935 13.2363 330.521 13.2363C315.892 13.2363 304.872 23.9004 304.872 42.002C304.872 60.0762 315.755 70.7676 330.521 70.7676C343.837 70.7676 352.669 62.1543 354.228 51.4629L344.001 51.4082C342.716 57.9707 337.356 61.6621 330.657 61.6621C321.579 61.6621 315.071 54.8535 315.071 42.002C315.071 29.3691 321.524 22.3418 330.685 22.3418C337.493 22.3418 342.825 26.1973 344.001 32.8965H354.228Z" fill="black"/>
<path d="M380.4 70.8223C392.705 70.8223 400.525 62.1543 400.525 49.166C400.525 36.1504 392.705 27.4551 380.4 27.4551C368.096 27.4551 360.275 36.1504 360.275 49.166C360.275 62.1543 368.096 70.8223 380.4 70.8223ZM380.455 62.8926C373.646 62.8926 370.311 56.8223 370.311 49.1387C370.311 41.4551 373.646 35.3027 380.455 35.3027C387.154 35.3027 390.49 41.4551 390.49 49.1387C390.49 56.8223 387.154 62.8926 380.455 62.8926Z" fill="black"/>
<path d="M408.927 70.002H418.825V44.4629C418.825 39.2949 422.271 35.7949 426.536 35.7949C430.72 35.7949 433.591 38.6113 433.591 42.9316V70.002H443.298V43.8066C443.298 39.0762 446.114 35.7949 450.899 35.7949C454.892 35.7949 458.063 38.1465 458.063 43.3418V70.002H467.989V41.8105C467.989 32.4316 462.575 27.4551 454.864 27.4551C448.767 27.4551 444.118 30.4629 442.259 35.1387H441.821C440.208 30.3809 436.134 27.4551 430.474 27.4551C424.841 27.4551 420.63 30.3535 418.88 35.1387H418.388V28.002H408.927V70.002Z" fill="black"/>
<path d="M478.031 83.9999H487.93V63.3848H488.34C489.898 66.4473 493.152 70.7402 500.371 70.7402C510.27 70.7402 517.68 62.8926 517.68 49.0566C517.68 35.0566 510.051 27.4551 500.344 27.4551C492.934 27.4551 489.844 31.9121 488.34 34.9473H487.766V28.002H478.031V83.9999ZM487.738 49.002C487.738 40.8535 491.238 35.5762 497.609 35.5762C504.199 35.5762 507.59 41.1816 507.59 49.002C507.59 56.877 504.145 62.6191 497.609 62.6191C491.293 62.6191 487.738 57.1504 487.738 49.002Z" fill="black"/>
<path d="M544.477 70.8223C556.781 70.8223 564.602 62.1543 564.602 49.166C564.602 36.1504 556.781 27.4551 544.477 27.4551C532.172 27.4551 524.352 36.1504 524.352 49.166C524.352 62.1543 532.172 70.8223 544.477 70.8223ZM544.531 62.8926C537.723 62.8926 534.387 56.8223 534.387 49.1387C534.387 41.4551 537.723 35.3027 544.531 35.3027C551.23 35.3027 554.566 41.4551 554.566 49.1387C554.566 56.8223 551.23 62.8926 544.531 62.8926Z" fill="black"/>
<path d="M582.901 45.3926C582.901 39.3223 586.565 35.8223 591.788 35.8223C596.901 35.8223 599.964 39.1855 599.964 44.791V70.002H609.862V43.2598C609.89 33.1973 604.147 27.4551 595.479 27.4551C589.19 27.4551 584.87 30.4629 582.956 35.1387H582.464V28.002H573.003V70.002H582.901V45.3926Z" fill="black"/>
<path d="M638.519 70.8223C648.308 70.8223 655.034 66.0371 656.784 58.7363L647.542 57.6973C646.202 61.252 642.921 63.1113 638.655 63.1113C632.257 63.1113 628.019 58.9004 627.937 51.709H657.194V48.6738C657.194 33.9355 648.335 27.4551 637.999 27.4551C625.968 27.4551 618.12 36.2871 618.12 49.248C618.12 62.4277 625.858 70.8223 638.519 70.8223ZM627.964 45.0371C628.265 39.6777 632.229 35.166 638.136 35.166C643.823 35.166 647.651 39.3223 647.706 45.0371H627.964Z" fill="black"/>
<path d="M675.467 45.3926C675.467 39.3223 679.131 35.8223 684.354 35.8223C689.467 35.8223 692.529 39.1855 692.529 44.791V70.002H702.428V43.2598C702.455 33.1973 696.713 27.4551 688.045 27.4551C681.756 27.4551 677.436 30.4629 675.521 35.1387H675.029V28.002H665.568V70.002H675.467V45.3926Z" fill="black"/>
<path d="M733.463 28.002H725.178V17.9395H715.279V28.002H709.318V35.6582H715.279V59.0098C715.225 66.9121 720.967 70.7949 728.404 70.5762C731.221 70.4941 733.162 69.9473 734.229 69.5918L732.561 61.8535C732.014 61.9902 730.893 62.2363 729.662 62.2363C727.174 62.2363 725.178 61.3613 725.178 57.3691V35.6582H733.463V28.002Z" fill="black"/>
</svg>
